<svg id="Capa_1" enable-background="new 0 0 512 512" height="512" viewBox="0 0 512 512" width="512" xmlns="http://www.w3.org/2000/svg"><g><path d="m256 102.941c-71.01 0-128.781 57.771-128.781 128.781 0 5.522 4.478 10 10 10s10-4.478 10-10c0-59.982 48.799-108.781 108.781-108.781s108.781 48.799 108.781 108.781c0 5.522 4.478 10 10 10s10-4.478 10-10c0-71.009-57.771-128.781-128.781-128.781z"/><path d="m439.584 270.479h-10.803v-38.757c0-75.926-49.229-140.572-117.443-163.694v-12.632c0-30.545-24.824-55.396-55.338-55.396s-55.338 24.851-55.338 55.396v12.632c-68.215 23.123-117.443 87.768-117.443 163.695v38.757h-10.803c-19.979 0-36.232 16.254-36.232 36.232v102.835c0 19.979 16.254 36.231 36.232 36.231h10.803v23.87c0 23.353 18.999 42.352 42.352 42.352h260.859c23.353 0 42.352-18.999 42.352-42.352v-23.87h10.803c19.979 0 36.232-16.253 36.232-36.231v-102.835c-.001-19.979-16.255-36.233-36.233-36.233zm-218.922-215.083c0-19.517 15.853-35.396 35.338-35.396s35.338 15.879 35.338 35.396v7.184c-11.411-2.381-23.23-3.639-35.338-3.639s-23.927 1.258-35.338 3.639zm-148.246 370.382c-8.95 0-16.232-7.281-16.232-16.231v-102.835c0-8.95 7.282-16.232 16.232-16.232h10.803v135.299h-10.803zm336.365 43.87c0 12.325-10.027 22.352-22.352 22.352h-260.859c-12.324 0-22.352-10.026-22.352-22.352v-237.925c0-84.244 68.537-152.781 152.781-152.781s152.781 68.537 152.781 152.781v237.925zm47.035-60.101c0 8.95-7.282 16.231-16.232 16.231h-10.803v-135.299h10.803c8.95 0 16.232 7.282 16.232 16.232z"/><path d="m340.358 292.659h-168.717c-24.494 0-44.422 19.928-44.422 44.423v115.705c0 5.522 4.478 10 10 10h237.562c5.522 0 10-4.478 10-10v-115.705c0-24.495-19.927-44.423-44.423-44.423zm24.423 150.128h-217.562v-105.705c0-13.467 10.956-24.423 24.422-24.423h168.718c13.467 0 24.423 10.956 24.423 24.423v105.705z"/></g></svg>